<svg width="408" height="363" viewBox="0 0 408 363" fill="none" xmlns="http://www.w3.org/2000/svg">
<g clip-path="url(#clip0)">
<path d="M88.192 362.216H87.2733C87.2733 343.284 82.7243 325.129 74.627 311.742C66.5296 298.356 55.5473 290.836 44.096 290.836C32.6446 290.836 21.6623 298.356 13.565 311.742C5.46769 325.129 0.918666 343.284 0.918666 362.216H0C1.74269e-07 342.882 4.64581 324.34 12.9154 310.668C21.185 296.997 32.401 289.317 44.096 289.317C55.791 289.317 67.007 296.997 75.2766 310.668C83.5462 324.34 88.192 342.882 88.192 362.216Z" fill="#3F3D56"/>
<path d="M407.888 362.216H406.969C406.969 343.284 402.42 325.129 394.323 311.742C386.226 298.356 375.243 290.836 363.792 290.836C352.341 290.836 341.358 298.356 333.261 311.742C325.164 325.129 320.615 343.284 320.615 362.216H319.696C319.696 342.882 324.342 324.34 332.611 310.668C340.881 296.997 352.097 289.317 363.792 289.317C375.487 289.317 386.703 296.997 394.973 310.668C403.242 324.34 407.888 342.882 407.888 362.216Z" fill="#3F3D56"/>
<path d="M299.945 188.322H299.026C299.026 116.303 263.584 57.7115 220.021 57.7115C176.457 57.7115 141.015 116.303 141.015 188.322H140.097C140.097 115.466 175.95 56.1928 220.021 56.1928C264.091 56.1928 299.945 115.466 299.945 188.322Z" fill="#3F3D56"/>
<path d="M66.833 59.9896C76.8535 59.9896 84.9767 46.5605 84.9767 29.9948C84.9767 13.4291 76.8535 0 66.833 0C56.8125 0 48.6893 13.4291 48.6893 29.9948C48.6893 46.5605 56.8125 59.9896 66.833 59.9896Z" fill="#F1B249"/>
<path d="M70.6873 236.453L101.858 175.084H163.142L200.593 235.389L199.837 236.193H200.107V361.629H70.73V236.193L70.6873 236.453Z" fill="#3F3D56"/>
<path d="M89.4409 209.773H96.5068V169.338H89.4409V209.773Z" fill="#3F3D56"/>
<path d="M101.372 174.28L139.796 248.753V361.629H70.73V234.585L101.372 174.28Z" fill="#4D774F"/>
<path d="M130.916 263.532H116.811V287.375H130.916V263.532Z" fill="#3F3D56"/>
<path d="M130.916 295.974H116.811V319.817H130.916V295.974Z" fill="#3F3D56"/>
<path d="M130.916 263.532H116.811V287.375H130.916V263.532Z" fill="white"/>
<path d="M130.916 295.974H116.811V319.817H130.916V295.974Z" fill="white"/>
<path d="M111.409 263.532H97.3042V287.375H111.409V263.532Z" fill="#3F3D56"/>
<path d="M111.409 295.974H97.3042V319.817H111.409V295.974Z" fill="#3F3D56"/>
<path d="M111.409 263.532H97.3042V287.375H111.409V263.532Z" fill="white"/>
<path d="M111.409 295.974H97.3042V319.817H111.409V295.974Z" fill="white"/>
<path d="M91.9019 263.532H77.7969V287.375H91.9019V263.532Z" fill="#3F3D56"/>
<path d="M91.9019 295.974H77.7969V319.817H91.9019V295.974Z" fill="#3F3D56"/>
<path d="M91.9019 263.532H77.7969V287.375H91.9019V263.532Z" fill="white"/>
<path d="M91.9019 295.974H77.7969V319.817H91.9019V295.974Z" fill="white"/>
<path d="M229.207 30.3745H222.777V56.9521H229.207V30.3745Z" fill="#4D774F"/>
<path d="M228.748 54.6741H174.087V362.216H228.748V54.6741Z" fill="#4D774F"/>
<path d="M250.796 54.6741H228.748V362.216H250.796V54.6741Z" fill="#3F3D56"/>
<path d="M192.231 81.2517H183.963V94.9202H192.231V81.2517Z" fill="white"/>
<path d="M205.552 81.2517H197.284V94.9202H205.552V81.2517Z" fill="white"/>
<path d="M218.872 81.2517H210.604V94.9202H218.872V81.2517Z" fill="white"/>
<path d="M192.461 112.386H184.193V126.054H192.461V112.386Z" fill="white"/>
<path d="M205.781 112.386H197.513V126.054H205.781V112.386Z" fill="white"/>
<path d="M219.102 112.386H210.834V126.054H219.102V112.386Z" fill="white"/>
<path d="M192.69 143.519H184.422V157.188H192.69V143.519Z" fill="white"/>
<path d="M206.011 143.519H197.743V157.188H206.011V143.519Z" fill="white"/>
<path d="M219.332 143.519H211.064V157.188H219.332V143.519Z" fill="white"/>
<path d="M192.92 174.653H184.652V188.322H192.92V174.653Z" fill="white"/>
<path d="M206.241 174.653H197.973V188.322H206.241V174.653Z" fill="white"/>
<path d="M219.561 174.653H211.293V188.322H219.561V174.653Z" fill="white"/>
<path d="M193.15 205.787H184.882V219.456H193.15V205.787Z" fill="white"/>
<path d="M206.47 205.787H198.202V219.456H206.47V205.787Z" fill="white"/>
<path d="M219.791 205.787H211.523V219.456H219.791V205.787Z" fill="white"/>
<path d="M193.379 236.921H185.111V250.589H193.379V236.921Z" fill="white"/>
<path d="M206.7 236.921H198.432V250.589H206.7V236.921Z" fill="white"/>
<path d="M220.021 236.921H211.753V250.589H220.021V236.921Z" fill="white"/>
<path d="M193.609 268.055H185.341V281.723H193.609V268.055Z" fill="white"/>
<path d="M206.93 268.055H198.662V281.723H206.93V268.055Z" fill="white"/>
<path d="M220.25 268.055H211.982V281.723H220.25V268.055Z" fill="white"/>
<path d="M193.839 299.189H185.571V312.857H193.839V299.189Z" fill="white"/>
<path d="M207.159 299.189H198.891V312.857H207.159V299.189Z" fill="white"/>
<path d="M207.159 335.638H198.891V361.456H207.159V335.638Z" fill="white"/>
<path d="M220.48 299.189H212.212V312.857H220.48V299.189Z" fill="white"/>
<path d="M232.422 30.3745H228.748V56.1928H232.422V30.3745Z" fill="#3F3D56"/>
<path d="M298.107 165.541H291.677V181.293H298.107V165.541Z" fill="#4D774F"/>
<path d="M297.648 179.943H242.987V362.216H297.648V179.943Z" fill="#4D774F"/>
<path d="M319.696 179.943H297.648V362.216H319.696V179.943Z" fill="#3F3D56"/>
<path d="M262.049 205.787H253.781V219.456H262.049V205.787Z" fill="white"/>
<path d="M275.37 205.787H267.102V219.456H275.37V205.787Z" fill="white"/>
<path d="M288.691 205.787H280.423V219.456H288.691V205.787Z" fill="white"/>
<path d="M262.279 236.921H254.011V250.589H262.279V236.921Z" fill="white"/>
<path d="M275.6 236.921H267.332V250.589H275.6V236.921Z" fill="white"/>
<path d="M288.921 236.921H280.653V250.589H288.921V236.921Z" fill="white"/>
<path d="M262.509 268.055H254.241V281.723H262.509V268.055Z" fill="white"/>
<path d="M275.829 268.055H267.562V281.723H275.829V268.055Z" fill="white"/>
<path d="M289.15 268.055H280.882V281.723H289.15V268.055Z" fill="white"/>
<path d="M262.739 299.189H254.471V312.857H262.739V299.189Z" fill="white"/>
<path d="M276.059 299.189H267.791V312.857H276.059V299.189Z" fill="white"/>
<path d="M276.059 335.638H267.791V361.456H276.059V335.638Z" fill="white"/>
<path d="M289.38 299.189H281.112V312.857H289.38V299.189Z" fill="white"/>
<path d="M301.323 165.541H297.648V180.843H301.323V165.541Z" fill="#3F3D56"/>
<path d="M408.001 361.298H0.112915V363H408.001V361.298Z" fill="#3F3D56"/>
<path d="M336.535 326.587C343.141 326.587 348.496 317.734 348.496 306.813C348.496 295.892 343.141 287.039 336.535 287.039C329.929 287.039 324.574 295.892 324.574 306.813C324.574 317.734 329.929 326.587 336.535 326.587Z" fill="#4D774F"/>
<path opacity="0.2" d="M345.432 293.605C346.548 297.92 346.7 302.75 345.859 307.232C345.019 311.714 343.243 315.556 340.847 318.072C338.451 320.588 335.592 321.613 332.781 320.965C329.97 320.317 327.39 318.037 325.501 314.534C326.183 317.17 327.203 319.529 328.491 321.449C329.779 323.369 331.304 324.802 332.96 325.651C334.617 326.499 336.365 326.742 338.084 326.363C339.803 325.984 341.451 324.991 342.915 323.454C344.378 321.917 345.623 319.873 346.561 317.462C347.499 315.051 348.109 312.332 348.349 309.492C348.588 306.653 348.451 303.762 347.948 301.018C347.444 298.275 346.586 295.746 345.432 293.605Z" fill="black"/>
<path d="M336.568 306.813H336.601L337.192 362.876H335.943L336.568 306.813Z" fill="#3F3D56"/>
<path d="M338.746 337.35L338.47 336.485L336.493 338.206L336.769 339.071L338.746 337.35Z" fill="#3F3D56"/>
<path d="M371.701 307.692C381.747 307.692 389.89 294.23 389.89 277.622C389.89 261.015 381.747 247.552 371.701 247.552C361.655 247.552 353.512 261.015 353.512 277.622C353.512 294.23 361.655 307.692 371.701 307.692Z" fill="#4D774F"/>
<path opacity="0.2" d="M385.231 257.538C386.928 264.099 387.158 271.444 385.881 278.259C384.603 285.075 381.901 290.918 378.258 294.744C374.615 298.569 370.267 300.129 365.992 299.143C361.717 298.157 357.794 294.691 354.923 289.363C355.959 293.372 357.51 296.96 359.469 299.879C361.427 302.798 363.746 304.978 366.265 306.269C368.784 307.559 371.442 307.928 374.056 307.352C376.67 306.775 379.177 305.266 381.403 302.928C383.628 300.591 385.52 297.482 386.947 293.815C388.374 290.149 389.302 286.014 389.666 281.697C390.03 277.379 389.822 272.982 389.056 268.811C388.291 264.639 386.985 260.793 385.231 257.538Z" fill="black"/>
<path d="M371.751 277.622H371.801L372.7 362.876H370.801L371.751 277.622Z" fill="#3F3D56"/>
<path d="M375.063 324.06L374.644 322.744L371.637 325.361L372.056 326.677L375.063 324.06Z" fill="#3F3D56"/>
<path d="M12.2457 325.828C18.8518 325.828 24.207 316.975 24.207 306.054C24.207 295.133 18.8518 286.279 12.2457 286.279C5.63968 286.279 0.284424 295.133 0.284424 306.054C0.284424 316.975 5.63968 325.828 12.2457 325.828Z" fill="#4D774F"/>
<path opacity="0.2" d="M21.1432 292.846C22.2589 297.161 22.4102 301.991 21.5702 306.473C20.7301 310.955 18.9534 314.797 16.5575 317.313C14.1616 319.829 11.3026 320.854 8.49151 320.206C5.68037 319.558 3.10024 317.278 1.21216 313.775C1.89372 316.411 2.91381 318.77 4.20174 320.69C5.48967 322.609 7.01465 324.043 8.67103 324.892C10.3274 325.74 12.0756 325.983 13.7944 325.604C15.5133 325.225 17.1617 324.232 18.6254 322.695C20.0892 321.158 21.3333 319.113 22.2716 316.702C23.2099 314.292 23.82 311.572 24.0595 308.733C24.299 305.894 24.1622 303.002 23.6586 300.259C23.1551 297.516 22.2968 294.986 21.1432 292.846H21.1432Z" fill="black"/>
<path d="M12.2784 306.054H12.3115L12.9026 362.117H11.6542L12.2784 306.054Z" fill="#3F3D56"/>
<path d="M14.4565 336.591L14.1809 335.726L12.2037 337.447L12.4792 338.312L14.4565 336.591Z" fill="#3F3D56"/>
<path d="M278.546 28.3514L282.774 22.7603C279.489 22.1612 278.14 25.1229 277.587 27.4671C275.021 25.7054 272.227 28.0142 272.227 28.0142L280.688 33.0919C280.261 31.2072 279.518 29.5628 278.546 28.3514Z" fill="#3F3D56"/>
<path d="M66.3338 56.4478L70.5623 50.8567C67.2774 50.2576 65.9277 53.2193 65.3753 55.5635C62.809 53.8018 60.0153 56.1106 60.0153 56.1106L68.4757 61.1883C68.0489 59.3036 67.3059 57.6592 66.3338 56.4478Z" fill="#3F3D56"/>
<path d="M342.853 85.3035L347.081 79.7125C343.796 79.1134 342.446 82.0751 341.894 84.4193C339.328 82.6576 336.534 84.9664 336.534 84.9664L344.994 90.044C344.568 88.1594 343.825 86.5149 342.853 85.3035Z" fill="#3F3D56"/>
<path d="M101.243 41.2605L105.472 35.6695C102.187 35.0704 100.837 38.0321 100.285 40.3763C97.7183 38.6146 94.9246 40.9234 94.9246 40.9234L103.385 46.001C102.958 44.1164 102.215 42.4719 101.243 41.2605Z" fill="#3F3D56"/>
<path d="M109.052 102.009L113.28 96.4185C109.996 95.8193 108.646 98.781 108.093 101.125C105.527 99.3635 102.733 101.672 102.733 101.672L111.194 106.75C110.767 104.865 110.024 103.221 109.052 102.009Z" fill="#3F3D56"/>
<path d="M273.493 133.903L277.722 128.312C274.437 127.713 273.087 130.674 272.535 133.018C269.968 131.257 267.175 133.566 267.175 133.566L275.635 138.643C275.208 136.759 274.465 135.114 273.493 133.903Z" fill="#3F3D56"/>
<path d="M48.6894 346.269H20.2107V347.788H24.652V362.216H25.5707V347.788H42.8701V362.216H43.7887V347.788H48.6894V346.269Z" fill="#3F3D56"/>
<path d="M77.6274 352.344C76.5033 352.344 75.3991 352.833 74.426 353.764C73.4378 352.286 72.2114 351.315 70.8958 350.968C69.5801 350.62 68.2317 350.912 67.0143 351.807C65.7968 352.702 64.7628 354.162 64.0375 356.009C63.3123 357.857 62.9271 360.013 62.9287 362.216H84.0349C83.9198 359.536 83.1949 357.027 82.006 355.196C80.8171 353.364 79.2525 352.345 77.6274 352.344Z" fill="#3F3D56"/>
<path d="M186.489 352.344C185.365 352.344 184.261 352.833 183.288 353.764C182.3 352.286 181.073 351.315 179.758 350.968C178.442 350.62 177.094 350.912 175.876 351.807C174.659 352.702 173.625 354.162 172.899 356.009C172.174 357.857 171.789 360.013 171.791 362.216H192.897C192.782 359.536 192.057 357.027 190.868 355.196C189.679 353.364 188.114 352.345 186.489 352.344Z" fill="#3F3D56"/>
<path d="M257.686 352.344C256.562 352.344 255.458 352.833 254.485 353.764C253.496 352.286 252.27 351.315 250.954 350.968C249.639 350.62 248.29 350.912 247.073 351.807C245.855 352.702 244.821 354.162 244.096 356.009C243.371 357.857 242.986 360.013 242.987 362.216H264.093C263.978 359.536 263.253 357.027 262.065 355.196C260.876 353.364 259.311 352.345 257.686 352.344Z" fill="#3F3D56"/>
<path d="M351.39 352.344C350.266 352.344 349.162 352.833 348.189 353.764C347.2 352.286 345.974 351.315 344.658 350.968C343.343 350.62 341.994 350.912 340.777 351.807C339.559 352.702 338.525 354.162 337.8 356.009C337.075 357.857 336.69 360.013 336.691 362.216H357.797C357.682 359.536 356.957 357.027 355.768 355.196C354.58 353.364 353.015 352.345 351.39 352.344Z" fill="#3F3D56"/>
<path d="M396.405 352.344C395.281 352.344 394.176 352.833 393.203 353.764C392.215 352.286 390.989 351.315 389.673 350.968C388.357 350.62 387.009 350.912 385.792 351.807C384.574 352.702 383.54 354.162 382.815 356.009C382.09 357.857 381.704 360.013 381.706 362.216H402.812C402.697 359.536 401.972 357.027 400.783 355.196C399.594 353.364 398.03 352.345 396.405 352.344Z" fill="#3F3D56"/>
<path d="M59.254 309.06H51.9047V321.21H55.3115V362.149H56.2302V321.21H59.254V309.06Z" fill="#3F3D56"/>
<path d="M48.7454 341.725H20.2667V343.244H48.7454V341.725Z" fill="#3F3D56"/>
<path d="M48.7454 337.929H20.2667V339.447H48.7454V337.929Z" fill="#3F3D56"/>
<path d="M48.7454 334.132H20.2667V335.65H48.7454V334.132Z" fill="#3F3D56"/>
</g>
<defs>
<clipPath id="clip0">
<rect width="408" height="363" fill="white"/>
</clipPath>
</defs>
</svg>
