<svg width="409" height="364" viewBox="0 0 409 364" fill="none" xmlns="http://www.w3.org/2000/svg">
<g clip-path="url(#clip0)">
<path d="M51.8945 358.769L51.1926 358.46C59.0186 290.48 78.686 228.749 106.572 184.636C127.654 151.338 152.729 129.067 179.434 119.922C206.14 110.777 233.597 115.059 259.222 132.363C284.846 149.667 307.794 179.425 325.906 218.834C344.017 258.244 356.695 306.008 362.747 357.63L362.046 357.942C345.479 215.865 281.73 116.636 207.018 116.636C133.285 116.636 68.0464 218.467 51.8945 358.769Z" fill="#3F3D56"/>
<path d="M323.615 192.673C334.405 192.673 343.153 175.586 343.153 154.509C343.153 133.432 334.405 116.346 323.615 116.346C312.824 116.346 304.077 133.432 304.077 154.509C304.077 175.586 312.824 192.673 323.615 192.673Z" fill="#F1B249"/>
<path d="M316.193 307.087H315.473V362.595H316.193V307.087Z" fill="#3F3D56"/>
<path d="M322.832 314.161C322.878 333.571 315.887 349.369 315.887 349.369C315.887 349.369 308.821 333.697 308.776 314.288C308.73 294.878 315.721 279.08 315.721 279.08C315.721 279.08 322.786 294.752 322.832 314.161Z" fill="#4D774F"/>
<path opacity="0.1" d="M322.832 314.161C322.878 333.571 315.887 349.369 315.887 349.369C315.887 349.369 308.821 333.697 308.776 314.288C308.73 294.878 315.721 279.08 315.721 279.08C315.721 279.08 322.786 294.752 322.832 314.161Z" fill="black"/>
<path opacity="0.4" d="M180.227 196.728C186.435 196.728 191.467 186.898 191.467 174.773C191.467 162.647 186.435 152.817 180.227 152.817C174.019 152.817 168.986 162.647 168.986 174.773C168.986 186.898 174.019 196.728 180.227 196.728Z" fill="#4D774F"/>
<path opacity="0.4" d="M159.424 200.661C163.778 200.661 167.309 193.765 167.309 185.259C167.309 176.753 163.778 169.857 159.424 169.857C155.069 169.857 151.538 176.753 151.538 185.259C151.538 193.765 155.069 200.661 159.424 200.661Z" fill="#4D774F"/>
<path opacity="0.4" d="M74.8897 244.926C79.2446 244.926 82.7748 238.03 82.7748 229.524C82.7748 221.018 79.2446 214.123 74.8897 214.123C70.5349 214.123 67.0046 221.018 67.0046 229.524C67.0046 238.03 70.5349 244.926 74.8897 244.926Z" fill="#4D774F"/>
<path opacity="0.4" d="M308.031 194.922C314.239 194.922 319.272 185.092 319.272 172.966C319.272 160.841 314.239 151.011 308.031 151.011C301.824 151.011 296.791 160.841 296.791 172.966C296.791 185.092 301.824 194.922 308.031 194.922Z" fill="#4D774F"/>
<path d="M20.371 356.423C20.9804 360.822 23.0675 363.547 23.0675 363.547C23.0675 363.547 24.1667 359.139 23.5574 354.739C22.948 350.339 20.8609 347.614 20.8609 347.614C20.8609 347.614 19.7617 352.023 20.371 356.423Z" fill="#3F3D56"/>
<path d="M21.2665 355.477C22.9386 358.656 23.1428 363.544 23.1428 363.544C23.1428 363.544 20.6361 363.276 18.9641 360.097C17.292 356.918 17.0878 352.031 17.0878 352.031C17.0878 352.031 19.5945 352.298 21.2665 355.477Z" fill="#4D774F"/>
<path d="M240.519 356.423C241.128 360.822 243.215 363.547 243.215 363.547C243.215 363.547 244.315 359.139 243.705 354.739C243.096 350.339 241.009 347.614 241.009 347.614C241.009 347.614 239.91 352.023 240.519 356.423Z" fill="#3F3D56"/>
<path d="M241.414 355.477C243.086 358.656 243.291 363.544 243.291 363.544C243.291 363.544 240.784 363.276 239.112 360.097C237.44 356.918 237.235 352.031 237.235 352.031C237.235 352.031 239.742 352.298 241.414 355.477Z" fill="#4D774F"/>
<path d="M24.5101 323.351L23.022 318.506L36.9121 295.25H72.63V302.033L59.732 329.165L44.8493 334.978L24.5101 323.351Z" fill="#3F3D56"/>
<path d="M78.7784 308.898V293.737H74.102V298.518L72.6301 295.25L60.7241 318.506L58.7395 322.382L56.2593 341.761L60.7241 363.078H83.5436V319.475L78.7784 308.898Z" fill="#CCCCCC"/>
<path d="M60.724 318.506H23.022V363.079H60.724V318.506Z" fill="#F2F2F2"/>
<path d="M55.5152 332.556H47.5779V346.122H55.5152V332.556Z" fill="#3F3D56"/>
<path d="M44.3534 332.071H37.4083V363.078H44.3534V332.071Z" fill="#CCCCCC"/>
<path d="M29.4711 336.916V332.072H26.4948V336.916H29.2229H29.4711Z" fill="#3F3D56"/>
<path d="M29.2229 340.792H26.4948V345.637H29.4711V340.792H29.2229Z" fill="#3F3D56"/>
<path d="M34.4318 332.071H31.4553V336.916H34.4318V332.071Z" fill="#3F3D56"/>
<path d="M34.4318 340.792H31.4553V345.637H34.4318V340.792Z" fill="#3F3D56"/>
<path d="M71.3898 337.401V332.556H68.4131V337.401H71.1416H71.3898Z" fill="#3F3D56"/>
<path d="M71.1416 341.277H68.4131V346.121H71.3898V341.277H71.1416Z" fill="#3F3D56"/>
<path d="M76.3505 332.556H73.374V337.401H76.3505V332.556Z" fill="#3F3D56"/>
<path d="M76.3505 341.277H73.374V346.122H76.3505V341.277Z" fill="#3F3D56"/>
<path d="M168.038 323.351L166.55 318.506L180.44 295.25H216.158V302.033L203.26 329.165L188.377 334.978L168.038 323.351Z" fill="#3F3D56"/>
<path d="M222.306 308.898V293.737H217.63V298.518L216.158 295.25L204.252 318.506L202.267 322.382L199.787 341.761L204.252 363.078H227.071V319.475L222.306 308.898Z" fill="#CCCCCC"/>
<path d="M204.252 318.506H166.55V363.079H204.252V318.506Z" fill="#F2F2F2"/>
<path d="M199.043 332.556H191.106V346.122H199.043V332.556Z" fill="#3F3D56"/>
<path d="M187.881 332.071H180.936V363.078H187.881V332.071Z" fill="#CCCCCC"/>
<path d="M172.999 336.916V332.072H170.022V336.916H172.751H172.999Z" fill="#3F3D56"/>
<path d="M172.751 340.792H170.022V345.637H172.999V340.792H172.751Z" fill="#3F3D56"/>
<path d="M177.96 332.071H174.983V336.916H177.96V332.071Z" fill="#3F3D56"/>
<path d="M177.96 340.792H174.983V345.637H177.96V340.792Z" fill="#3F3D56"/>
<path d="M214.917 337.401V332.556H211.941V337.401H214.669H214.917Z" fill="#3F3D56"/>
<path d="M214.669 341.277H211.941V346.121H214.917V341.277H214.669Z" fill="#3F3D56"/>
<path d="M219.878 332.556H216.902V337.401H219.878V332.556Z" fill="#3F3D56"/>
<path d="M219.878 341.277H216.902V346.122H219.878V341.277Z" fill="#3F3D56"/>
<path d="M100.906 241.957L98.4261 238.081L112.316 213.856H147.538V235.174L124.718 265.212L100.906 241.957Z" fill="#3F3D56"/>
<path d="M153.96 227.445V214.34H149.283V217.55L147.538 213.856L136.128 238.081L131.664 243.895L124.741 342.686L135.181 363.078H159.444V239.049L153.96 227.445Z" fill="#CCCCCC"/>
<path d="M136.128 238.081H98.426V363.079H136.128V238.081Z" fill="#F2F2F2"/>
<path d="M120.005 332.556H113.06V363.079H120.005V332.556Z" fill="#CCCCCC"/>
<path d="M105.619 341.277V336.432H102.643V341.277H105.371H105.619Z" fill="#3F3D56"/>
<path d="M105.371 345.152H102.643V349.998H105.619V345.152H105.371Z" fill="#3F3D56"/>
<path d="M110.58 336.432H107.604V341.277H110.58V336.432Z" fill="#3F3D56"/>
<path d="M110.58 345.153H107.604V349.997H110.58V345.153Z" fill="#3F3D56"/>
<path d="M125.958 341.277V336.432H122.982V341.277H125.711H125.958Z" fill="#3F3D56"/>
<path d="M125.711 345.152H122.982V349.998H125.958V345.152H125.711Z" fill="#3F3D56"/>
<path d="M130.919 336.432H127.943V341.277H130.919V336.432Z" fill="#3F3D56"/>
<path d="M130.919 345.153H127.943V349.997H130.919V345.153Z" fill="#3F3D56"/>
<path d="M146.794 244.379V239.534H143.817V244.379H146.546H146.794Z" fill="#3F3D56"/>
<path d="M146.546 248.255H143.817V253.1H146.794V248.255H146.546Z" fill="#3F3D56"/>
<path d="M151.755 239.534H148.778V244.379H151.755V239.534Z" fill="#3F3D56"/>
<path d="M151.755 248.255H148.778V253.1H151.755V248.255Z" fill="#3F3D56"/>
<path d="M146.794 271.511V266.665H143.817V271.511H146.546H146.794Z" fill="#3F3D56"/>
<path d="M146.546 275.386H143.817V280.231H146.794V275.386H146.546Z" fill="#3F3D56"/>
<path d="M151.755 266.666H148.778V271.51H151.755V266.666Z" fill="#3F3D56"/>
<path d="M151.755 275.386H148.778V280.231H151.755V275.386Z" fill="#3F3D56"/>
<path d="M146.794 298.642V293.797H143.817V298.642H146.546H146.794Z" fill="#3F3D56"/>
<path d="M146.546 302.518H143.817V307.362H146.794V302.518H146.546Z" fill="#3F3D56"/>
<path d="M151.755 293.797H148.778V298.642H151.755V293.797Z" fill="#3F3D56"/>
<path d="M151.755 302.518H148.778V307.363H151.755V302.518Z" fill="#3F3D56"/>
<path d="M146.794 325.773V320.928H143.817V325.773H146.546H146.794Z" fill="#3F3D56"/>
<path d="M146.546 329.649H143.817V334.493H146.794V329.649H146.546Z" fill="#3F3D56"/>
<path d="M151.755 320.928H148.778V325.773H151.755V320.928Z" fill="#3F3D56"/>
<path d="M151.755 329.649H148.778V334.494H151.755V329.649Z" fill="#3F3D56"/>
<path d="M131.415 244.379H102.643V256.007H131.415V244.379Z" fill="#3F3D56"/>
<path d="M131.415 267.635H102.643V279.262H131.415V267.635Z" fill="#3F3D56"/>
<path d="M131.415 290.89H102.643V302.518H131.415V290.89Z" fill="#3F3D56"/>
<path d="M131.415 314.145H102.643V325.773H131.415V314.145Z" fill="#3F3D56"/>
<path d="M245.873 241.957L243.393 238.081L257.283 213.856H292.504V235.174L269.685 265.212L245.873 241.957Z" fill="#3F3D56"/>
<path d="M298.926 227.445V214.34H294.25V217.55L292.504 213.856L281.095 238.081L276.63 243.895L269.707 342.686L280.147 363.078H304.41V239.049L298.926 227.445Z" fill="#CCCCCC"/>
<path d="M281.095 238.081H243.393V363.079H281.095V238.081Z" fill="#F2F2F2"/>
<path d="M264.972 332.556H258.027V363.079H264.972V332.556Z" fill="#CCCCCC"/>
<path d="M250.586 341.277V336.432H247.609V341.277H250.338H250.586Z" fill="#3F3D56"/>
<path d="M250.338 345.152H247.609V349.998H250.586V345.152H250.338Z" fill="#3F3D56"/>
<path d="M255.547 336.432H252.57V341.277H255.547V336.432Z" fill="#3F3D56"/>
<path d="M255.547 345.153H252.57V349.997H255.547V345.153Z" fill="#3F3D56"/>
<path d="M270.925 341.277V336.432H267.949V341.277H270.677H270.925Z" fill="#3F3D56"/>
<path d="M270.677 345.152H267.949V349.998H270.925V345.152H270.677Z" fill="#3F3D56"/>
<path d="M275.886 336.432H272.909V341.277H275.886V336.432Z" fill="#3F3D56"/>
<path d="M275.886 345.153H272.909V349.997H275.886V345.153Z" fill="#3F3D56"/>
<path d="M291.76 244.379V239.534H288.784V244.379H291.512H291.76Z" fill="#3F3D56"/>
<path d="M291.512 248.255H288.784V253.1H291.76V248.255H291.512Z" fill="#3F3D56"/>
<path d="M296.721 239.534H293.745V244.379H296.721V239.534Z" fill="#3F3D56"/>
<path d="M296.721 248.255H293.745V253.1H296.721V248.255Z" fill="#3F3D56"/>
<path d="M291.76 271.511V266.665H288.784V271.511H291.512H291.76Z" fill="#3F3D56"/>
<path d="M291.512 275.386H288.784V280.231H291.76V275.386H291.512Z" fill="#3F3D56"/>
<path d="M296.721 266.666H293.745V271.51H296.721V266.666Z" fill="#3F3D56"/>
<path d="M296.721 275.386H293.745V280.231H296.721V275.386Z" fill="#3F3D56"/>
<path d="M291.76 298.642V293.797H288.784V298.642H291.512H291.76Z" fill="#3F3D56"/>
<path d="M291.512 302.518H288.784V307.362H291.76V302.518H291.512Z" fill="#3F3D56"/>
<path d="M296.721 293.797H293.745V298.642H296.721V293.797Z" fill="#3F3D56"/>
<path d="M296.721 302.518H293.745V307.363H296.721V302.518Z" fill="#3F3D56"/>
<path d="M291.76 325.773V320.928H288.784V325.773H291.512H291.76Z" fill="#3F3D56"/>
<path d="M291.512 329.649H288.784V334.493H291.76V329.649H291.512Z" fill="#3F3D56"/>
<path d="M296.721 320.928H293.745V325.773H296.721V320.928Z" fill="#3F3D56"/>
<path d="M296.721 329.649H293.745V334.494H296.721V329.649Z" fill="#3F3D56"/>
<path d="M276.382 244.379H247.609V256.007H276.382V244.379Z" fill="#3F3D56"/>
<path d="M276.382 267.635H247.609V279.262H276.382V267.635Z" fill="#3F3D56"/>
<path d="M276.382 290.89H247.609V302.518H276.382V290.89Z" fill="#3F3D56"/>
<path d="M276.382 314.145H247.609V325.773H276.382V314.145Z" fill="#3F3D56"/>
<path d="M325.371 241.957L322.891 238.081L336.781 213.856H372.002V235.174L349.183 265.212L325.371 241.957Z" fill="#3F3D56"/>
<path d="M378.424 227.445V214.34H373.748V217.55L372.002 213.856L360.592 238.081L356.128 243.895L349.205 342.686L359.645 363.078H383.908V239.049L378.424 227.445Z" fill="#CCCCCC"/>
<path d="M360.592 238.081H322.89V363.079H360.592V238.081Z" fill="#F2F2F2"/>
<path d="M344.47 332.556H337.525V363.079H344.47V332.556Z" fill="#CCCCCC"/>
<path d="M330.084 341.277V336.432H327.107V341.277H329.836H330.084Z" fill="#3F3D56"/>
<path d="M329.836 345.152H327.107V349.998H330.084V345.152H329.836Z" fill="#3F3D56"/>
<path d="M335.044 336.432H332.068V341.277H335.044V336.432Z" fill="#3F3D56"/>
<path d="M335.044 345.153H332.068V349.997H335.044V345.153Z" fill="#3F3D56"/>
<path d="M350.423 341.277V336.432H347.447V341.277H350.175H350.423Z" fill="#3F3D56"/>
<path d="M350.175 345.152H347.447V349.998H350.423V345.152H350.175Z" fill="#3F3D56"/>
<path d="M355.384 336.432H352.407V341.277H355.384V336.432Z" fill="#3F3D56"/>
<path d="M355.384 345.153H352.407V349.997H355.384V345.153Z" fill="#3F3D56"/>
<path d="M371.258 244.379V239.534H368.282V244.379H371.01H371.258Z" fill="#3F3D56"/>
<path d="M371.01 248.255H368.282V253.1H371.258V248.255H371.01Z" fill="#3F3D56"/>
<path d="M376.219 239.534H373.242V244.379H376.219V239.534Z" fill="#3F3D56"/>
<path d="M376.219 248.255H373.242V253.1H376.219V248.255Z" fill="#3F3D56"/>
<path d="M371.258 271.511V266.665H368.282V271.511H371.01H371.258Z" fill="#3F3D56"/>
<path d="M371.01 275.386H368.282V280.231H371.258V275.386H371.01Z" fill="#3F3D56"/>
<path d="M376.219 266.666H373.242V271.51H376.219V266.666Z" fill="#3F3D56"/>
<path d="M376.219 275.386H373.242V280.231H376.219V275.386Z" fill="#3F3D56"/>
<path d="M371.258 298.642V293.797H368.282V298.642H371.01H371.258Z" fill="#3F3D56"/>
<path d="M371.01 302.518H368.282V307.362H371.258V302.518H371.01Z" fill="#3F3D56"/>
<path d="M376.219 293.797H373.242V298.642H376.219V293.797Z" fill="#3F3D56"/>
<path d="M376.219 302.518H373.242V307.363H376.219V302.518Z" fill="#3F3D56"/>
<path d="M371.258 325.773V320.928H368.282V325.773H371.01H371.258Z" fill="#3F3D56"/>
<path d="M371.01 329.649H368.282V334.493H371.258V329.649H371.01Z" fill="#3F3D56"/>
<path d="M376.219 320.928H373.242V325.773H376.219V320.928Z" fill="#3F3D56"/>
<path d="M376.219 329.649H373.242V334.494H376.219V329.649Z" fill="#3F3D56"/>
<path d="M355.88 244.379H327.107V256.007H355.88V244.379Z" fill="#3F3D56"/>
<path d="M355.88 267.635H327.107V279.262H355.88V267.635Z" fill="#3F3D56"/>
<path d="M355.88 290.89H327.107V302.518H355.88V290.89Z" fill="#3F3D56"/>
<path d="M355.88 314.145H327.107V325.773H355.88V314.145Z" fill="#3F3D56"/>
<path d="M409 362.595H0V364H409V362.595Z" fill="#3F3D56"/>
<path d="M91.3685 307.087H90.649V362.595H91.3685V307.087Z" fill="#3F3D56"/>
<path d="M98.008 314.161C98.0538 333.571 91.0626 349.369 91.0626 349.369C91.0626 349.369 83.9972 333.697 83.9514 314.288C83.9056 294.878 90.8968 279.08 90.8968 279.08C90.8968 279.08 97.9622 294.752 98.008 314.161Z" fill="#4D774F"/>
<path d="M163.312 307.087H162.593V362.595H163.312V307.087Z" fill="#3F3D56"/>
<path d="M169.952 314.161C169.998 333.571 163.006 349.369 163.006 349.369C163.006 349.369 155.941 333.697 155.895 314.288C155.849 294.878 162.841 279.08 162.841 279.08C162.841 279.08 169.906 294.752 169.952 314.161Z" fill="#4D774F"/>
<path d="M306.84 307.087H306.12V362.595H306.84V307.087Z" fill="#3F3D56"/>
<path d="M313.48 314.161C313.525 333.571 306.534 349.369 306.534 349.369C306.534 349.369 299.469 333.697 299.423 314.288C299.377 294.878 306.368 279.08 306.368 279.08C306.368 279.08 313.434 294.752 313.48 314.161Z" fill="#4D774F"/>
<path d="M211.335 120.887C218.884 120.887 225.004 118.197 225.004 114.879C225.004 111.561 218.884 108.872 211.335 108.872C203.785 108.872 197.665 111.561 197.665 114.879C197.665 118.197 203.785 120.887 211.335 120.887Z" fill="#4D774F"/>
<path d="M226.803 30.9155C226.803 47.9897 210.975 96.2597 210.975 96.2597C210.975 96.2597 195.147 47.9897 195.147 30.9155C195.147 22.7162 196.815 14.8527 199.783 9.05495C202.751 3.25716 206.777 -4.76837e-07 210.975 -4.76837e-07C215.173 -4.76837e-07 219.199 3.25716 222.167 9.05495C225.135 14.8527 226.803 22.7162 226.803 30.9155Z" fill="#4D774F"/>
<path d="M210.975 48.4812C215.942 48.4812 219.968 40.6168 219.968 30.9155C219.968 21.2143 215.942 13.3499 210.975 13.3499C206.008 13.3499 201.982 21.2143 201.982 30.9155C201.982 40.6168 206.008 48.4812 210.975 48.4812Z" fill="#F2F2F2"/>
</g>
<defs>
<clipPath id="clip0">
<rect width="409" height="364" fill="white"/>
</clipPath>
</defs>
</svg>
