<svg width="414" height="362" viewBox="0 0 414 362" fill="none" xmlns="http://www.w3.org/2000/svg">
<g clip-path="url(#clip0)">
<path d="M45.8416 360.22L45.1311 359.92C53.0528 293.983 72.9606 234.106 101.187 191.319C122.528 159.021 147.909 137.419 174.94 128.549C201.972 119.679 229.766 123.831 255.703 140.616C281.641 157.4 304.87 186.264 323.203 224.489C341.535 262.715 354.369 309.044 360.494 359.116L359.784 359.418C343.016 221.609 278.487 125.361 202.861 125.361C128.227 125.361 62.1909 224.133 45.8416 360.22Z" fill="#3F3D56"/>
<path d="M382.868 328.832L383.96 343.825L376.314 345.188L377.406 326.787L382.868 328.832Z" fill="#A0616A"/>
<path d="M346.821 123.014C346.821 123.014 347.549 141.415 347.549 142.096C347.549 142.778 342.451 189.802 342.451 189.802C342.451 189.802 335.169 215.7 342.451 215.019C349.733 214.337 347.549 190.484 347.549 190.484L355.195 150.956L351.918 123.014H346.821Z" fill="#A0616A"/>
<path d="M358.836 328.832L357.744 343.825L365.391 345.188L364.298 326.787L358.836 328.832Z" fill="#A0616A"/>
<path d="M350.462 188.439L348.641 193.21C348.641 193.21 347.549 213.655 348.641 220.471C349.733 227.286 351.918 258.636 351.918 260.68C351.918 262.725 352.282 264.088 351.918 264.769C351.554 265.451 350.462 265.451 351.19 266.814C351.918 268.177 351.918 272.266 351.918 272.266V275.674L356.652 326.106C356.652 326.106 353.739 332.239 355.923 332.239C358.108 332.239 366.119 332.239 365.755 325.424L365.026 324.743C365.026 324.743 363.934 279.763 364.298 277.718C364.662 275.674 364.298 271.584 364.298 271.584C364.298 271.584 363.57 269.54 364.298 268.858C365.026 268.177 365.026 262.725 365.026 262.725L368.303 221.152C368.303 221.152 371.216 249.094 373.037 251.82C374.857 254.547 374.493 261.362 374.493 261.362L375.95 321.335C375.95 321.335 374.493 328.15 375.95 329.513C377.406 330.876 383.596 335.647 383.96 328.832C384.324 322.017 386.145 262.725 386.145 259.999C386.145 257.273 385.781 255.91 386.145 253.865C386.509 251.82 385.781 251.82 386.145 251.82C386.509 251.82 385.417 249.776 385.417 248.413V215.019C385.417 215.019 385.781 208.203 386.145 206.84C386.509 205.477 385.781 204.114 386.145 202.07C386.509 200.025 385.417 193.21 385.417 193.21L369.032 185.032L350.462 188.439Z" fill="#2F2E41"/>
<path d="M363.206 341.099C363.206 341.099 365.026 337.692 362.478 337.692C360.841 337.754 359.23 338.45 357.744 339.736L355.923 352.003C355.923 352.003 348.459 363.248 356.834 361.885C365.208 360.522 363.934 361.545 363.934 361.545C363.934 361.545 366.483 360.182 366.847 358.819C367.211 357.456 366.119 337.692 366.119 337.692C366.119 337.692 365.026 343.144 363.206 341.099Z" fill="#2F2E41"/>
<path d="M378.863 341.099C378.863 341.099 377.042 337.692 379.591 337.692C381.227 337.754 382.839 338.45 384.325 339.736L386.145 352.003C386.145 352.003 393.61 363.248 385.235 361.885C376.86 360.522 377.042 361.545 377.042 361.545C377.042 361.545 374.493 360.182 374.129 358.819C373.765 357.456 375.95 337.692 375.95 337.692C375.95 337.692 377.042 343.144 378.863 341.099Z" fill="#2F2E41"/>
<path d="M107.43 120.923H104.189V360.581H107.43V120.923Z" fill="#3F3D56"/>
<path d="M137.346 151.464C137.553 235.267 106.052 303.475 106.052 303.475C106.052 303.475 74.2173 235.813 74.0109 152.011C73.8045 68.2084 105.305 -2.49147e-05 105.305 -2.49147e-05C105.305 -2.49147e-05 137.14 67.662 137.346 151.464Z" fill="#4D774F"/>
<path d="M332.984 261.362H82.1082V360.863H332.984V261.362Z" fill="#F2F2F2"/>
<path d="M74.0977 272.266L101.406 165.268H319.512L339.902 272.266H74.0977Z" fill="#3F3D56"/>
<path d="M243.412 172.083H142.187V234.783H243.412V172.083Z" fill="#F2F2F2"/>
<path d="M148.741 120.969L132.72 183.669H252.879L243.412 120.969H148.741Z" fill="#3F3D56"/>
<path d="M231.032 281.126H151.108V360.863H231.032V281.126Z" fill="#CCCCCC"/>
<path d="M134.541 283.852H91.9393V360.863H134.541V283.852Z" fill="#CCCCCC"/>
<path d="M266.897 288.622H244.868V360.863H266.897V288.622Z" fill="#3F3D56"/>
<path d="M414 360.522H0V361.885H414V360.522Z" fill="#3F3D56"/>
<path d="M67.6453 202.451H65.5062V360.599H67.6453V202.451Z" fill="#3F3D56"/>
<path d="M87.3869 222.605C87.5231 277.905 66.7362 322.916 66.7362 322.916C66.7362 322.916 45.7285 278.266 45.5923 222.965C45.4562 167.665 66.2431 122.655 66.2431 122.655C66.2431 122.655 87.2507 167.304 87.3869 222.605Z" fill="#4D774F"/>
<path opacity="0.1" d="M87.3869 222.605C87.5231 277.905 66.7362 322.916 66.7362 322.916C66.7362 322.916 45.7285 278.266 45.5923 222.965C45.4562 167.665 66.2431 122.655 66.2431 122.655C66.2431 122.655 87.2507 167.304 87.3869 222.605Z" fill="black"/>
<path d="M39.8371 202.451H37.698V360.599H39.8371V202.451Z" fill="#3F3D56"/>
<path d="M59.5785 222.605C59.7147 277.905 38.9278 322.916 38.9278 322.916C38.9278 322.916 17.9201 278.266 17.784 222.965C17.6478 167.665 38.4347 122.655 38.4347 122.655C38.4347 122.655 59.4424 167.304 59.5785 222.605Z" fill="#4D774F"/>
<path d="M301.488 292.711H290.747V311.453H301.488V292.711Z" fill="#3F3D56"/>
<path d="M315.871 292.711H305.129V311.453H315.871V292.711Z" fill="#3F3D56"/>
<path d="M301.488 318.268H290.747V337.692H301.488V318.268Z" fill="#3F3D56"/>
<path d="M315.871 318.268H305.129V337.692H315.871V318.268Z" fill="#3F3D56"/>
<path d="M159.879 189.239H151.472V203.907H159.879V189.239Z" fill="#3F3D56"/>
<path d="M171.135 189.239H162.728V203.907H171.135V189.239Z" fill="#3F3D56"/>
<path d="M159.879 209.24H151.472V224.441H159.879V209.24Z" fill="#3F3D56"/>
<path d="M171.135 209.24H162.728V224.441H171.135V209.24Z" fill="#3F3D56"/>
<path d="M222.871 189.239H214.464V203.907H222.871V189.239Z" fill="#3F3D56"/>
<path d="M234.127 189.239H225.72V203.907H234.127V189.239Z" fill="#3F3D56"/>
<path d="M222.871 209.24H214.464V224.441H222.871V209.24Z" fill="#3F3D56"/>
<path d="M234.127 209.24H225.72V224.441H234.127V209.24Z" fill="#3F3D56"/>
<path d="M191.557 189.239H183.15V203.907H191.557V189.239Z" fill="#3F3D56"/>
<path d="M202.813 189.239H194.406V203.907H202.813V189.239Z" fill="#3F3D56"/>
<path d="M191.557 209.24H183.15V224.441H191.557V209.24Z" fill="#3F3D56"/>
<path d="M202.813 209.24H194.406V224.441H202.813V209.24Z" fill="#3F3D56"/>
<path d="M255.077 295.941H249.784V305.176H255.077V295.941Z" fill="#F2F2F2"/>
<path d="M262.164 295.941H256.871V305.176H262.164V295.941Z" fill="#F2F2F2"/>
<path d="M255.077 308.534H249.784V318.105H255.077V308.534Z" fill="#F2F2F2"/>
<path d="M262.164 308.534H256.871V318.105H262.164V308.534Z" fill="#F2F2F2"/>
<path d="M263.984 332.58C264.789 332.58 265.441 331.36 265.441 329.854C265.441 328.349 264.789 327.128 263.984 327.128C263.18 327.128 262.528 328.349 262.528 329.854C262.528 331.36 263.18 332.58 263.984 332.58Z" fill="#F2F2F2"/>
<path d="M231.214 289.645H151.108V291.008H231.214V289.645Z" fill="#F2F2F2"/>
<path d="M231.214 295.778H151.108V297.141H231.214V295.778Z" fill="#F2F2F2"/>
<path d="M231.214 301.912H151.108V303.275H231.214V301.912Z" fill="#F2F2F2"/>
<path d="M231.214 308.046H151.108V309.409H231.214V308.046Z" fill="#F2F2F2"/>
<path d="M231.214 314.179H151.108V315.542H231.214V314.179Z" fill="#F2F2F2"/>
<path d="M231.214 320.313H151.108V321.676H231.214V320.313Z" fill="#F2F2F2"/>
<path d="M231.214 326.447H151.108V327.81H231.214V326.447Z" fill="#F2F2F2"/>
<path d="M231.214 332.58H151.108V333.943H231.214V332.58Z" fill="#F2F2F2"/>
<path d="M231.214 338.714H151.108V340.077H231.214V338.714Z" fill="#F2F2F2"/>
<path d="M231.214 344.848H151.108V346.211H231.214V344.848Z" fill="#F2F2F2"/>
<path d="M231.214 350.981H151.108V352.344H231.214V350.981Z" fill="#F2F2F2"/>
<path d="M134.541 289.645H91.9393V291.008H134.541V289.645Z" fill="#F2F2F2"/>
<path d="M134.541 295.778H91.9393V297.141H134.541V295.778Z" fill="#F2F2F2"/>
<path d="M134.541 301.912H91.9393V303.275H134.541V301.912Z" fill="#F2F2F2"/>
<path d="M134.541 308.046H91.9393V309.409H134.541V308.046Z" fill="#F2F2F2"/>
<path d="M134.541 314.179H91.9393V315.542H134.541V314.179Z" fill="#F2F2F2"/>
<path d="M134.541 320.313H91.9393V321.676H134.541V320.313Z" fill="#F2F2F2"/>
<path d="M134.541 326.447H91.9393V327.81H134.541V326.447Z" fill="#F2F2F2"/>
<path d="M134.541 332.58H91.9393V333.943H134.541V332.58Z" fill="#F2F2F2"/>
<path d="M134.541 338.714H91.9393V340.077H134.541V338.714Z" fill="#F2F2F2"/>
<path d="M134.541 344.848H91.9393V346.211H134.541V344.848Z" fill="#F2F2F2"/>
<path d="M134.541 350.981H91.9393V352.344H134.541V350.981Z" fill="#F2F2F2"/>
<path d="M319.33 220.13C335.619 220.13 348.823 195.415 348.823 164.927C348.823 134.439 335.619 109.724 319.33 109.724C303.041 109.724 289.836 134.439 289.836 164.927C289.836 195.415 303.041 220.13 319.33 220.13Z" fill="#4D774F"/>
<path d="M337.9 159.475H322.243V130.17H316.417V159.475H300.76V170.379H316.417V199.684H322.243V170.379H337.9V159.475Z" fill="white"/>
<path d="M355.195 69.1739C360.424 69.1739 364.662 61.2407 364.662 51.4545C364.662 41.6683 360.424 33.7351 355.195 33.7351C349.967 33.7351 345.728 41.6683 345.728 51.4545C345.728 61.2407 349.967 69.1739 355.195 69.1739Z" fill="#A0616A"/>
<path d="M351.918 64.4033C351.918 64.4033 353.375 78.0337 353.375 80.0782C353.375 82.1228 359.565 88.2564 359.565 88.2564L366.483 71.9C366.483 71.9 362.114 60.3142 362.114 57.5882L351.918 64.4033Z" fill="#A0616A"/>
<path d="M357.38 82.1228C357.38 82.1228 354.206 80.5418 353.244 77.9247C353.244 77.9247 343.179 96.4346 343.179 99.8422L351.19 126.421C351.19 126.421 351.19 135.963 351.918 136.644C352.646 137.326 351.918 136.644 351.918 139.37C351.918 142.096 349.734 159.816 350.462 162.542C351.19 165.268 351.918 163.223 351.19 167.312C350.462 171.401 348.641 193.21 348.641 193.21C348.641 193.21 355.195 189.121 364.662 195.936C374.129 202.751 385.417 193.21 385.417 193.21C385.417 193.21 382.504 180.943 383.232 176.854C383.96 172.765 381.412 165.268 381.412 165.268L379.591 102.568C379.591 102.568 382.14 74.6261 380.319 73.2631L376.678 70.537L365.018 67.8546C365.018 67.8546 362.113 81.4413 357.38 82.1228Z" fill="#D0CDE1"/>
<path d="M346.821 95.0716L343.179 99.8422C343.179 99.8422 341.359 110.065 343.179 114.836C345 119.606 345.728 126.421 345.728 126.421L353.01 125.058L346.821 95.0716Z" fill="#D0CDE1"/>
<path d="M373.765 101.205C373.765 101.205 371.657 111.354 372.097 121.394C372.178 123.192 372.501 124.922 373.037 126.421L347.205 149.376C347.205 149.376 335.533 151.637 338.446 161.179C341.359 170.72 351.918 156.408 351.918 156.408C351.918 156.408 379.591 148.911 381.776 141.415C383.96 133.918 385.417 102.568 385.417 102.568L373.765 101.205Z" fill="#A0616A"/>
<path d="M347.967 32.7281L346.325 31.4976C346.325 31.4976 349.759 24.4222 354.536 25.0374L353.192 22.2687C353.192 22.2687 356.477 19.8077 359.462 26.2679C361.032 29.6639 362.848 33.6556 363.98 38.1523H365.739L365.005 41.1773L367.574 44.2023L364.937 43.659C365.187 46.2705 365.101 48.9558 364.687 51.4934L364.758 53.8843C364.758 53.8843 361.702 45.0332 361.702 43.8027V46.8789C361.702 46.8789 360.06 44.1103 360.06 42.2645L359.164 44.418L358.716 41.034L353.192 44.418L354.088 41.6493L350.654 42.5722L351.998 39.1883C351.998 39.1883 348.117 43.1874 347.967 46.5714C347.818 49.9553 345.877 54.262 345.877 54.262L344.982 51.1857C344.982 51.1857 343.638 37.3425 347.967 32.7281Z" fill="#2F2E41"/>
<path d="M374.858 73.2631H380.319C380.319 73.2631 384.324 74.6261 385.417 88.2564C386.509 101.887 387.601 105.294 386.509 105.294C385.417 105.294 372.309 104.613 372.309 103.931C372.309 103.25 374.858 73.2631 374.858 73.2631Z" fill="#D0CDE1"/>
</g>
<defs>
<clipPath id="clip0">
<rect width="414" height="362" fill="white"/>
</clipPath>
</defs>
</svg>
